<svg width="32" height="32" viewBox="0 0 32 32" fill="none" xmlns="http://www.w3.org/2000/svg">
<path d="M30 16C30 18.7689 29.1789 21.4757 27.6406 23.778C26.1022 26.0803 23.9157 27.8747 21.3576 28.9343C18.7994 29.9939 15.9845 30.2712 13.2687 29.731C10.553 29.1908 8.05845 27.8574 6.10051 25.8995C4.14258 23.9416 2.80921 21.447 2.26901 18.7313C1.72882 16.0155 2.00607 13.2006 3.06569 10.6424C4.12532 8.08427 5.91973 5.89777 8.22202 4.35943C10.5243 2.82109 13.2311 2 16 2C19.713 2 23.274 3.475 25.8995 6.10051C28.525 8.72601 30 12.287 30 16Z" stroke="#EBEDF8" stroke-width="2" stroke-miterlimit="10" stroke-linecap="square"/>
<path d="M23.4911 10.2053L22.5636 14.7378H24.1211V17.1003H22.0911L20.9186 22.8403H17.8911L16.8061 17.1003H15.0561L13.9886 22.8403H10.9611L9.78863 17.1003H7.74113V14.7378H9.29863L8.37113 10.2053H10.5061L11.4336 14.7378H13.4636L14.3561 10.2228H17.5236L18.4161 14.7378H20.4461L21.3736 10.2053H23.4911ZM11.9061 17.1003L12.4661 19.8653L13.0086 17.1003H11.9061ZM15.5111 14.7378H16.3686L15.9311 12.4453L15.5111 14.7378ZM18.8711 17.1003L19.4136 19.8653L19.9736 17.1003H18.8711Z" fill="#EBEDF8"/>
</svg>
