<svg width="32" height="32" viewBox="0 0 32 32" fill="none" xmlns="http://www.w3.org/2000/svg">
<path d="M4.54688 9.63989H27.4535V25.6399C27.4535 26.7821 26.9998 27.8775 26.1921 28.6852C25.3845 29.4928 24.2891 29.9466 23.1469 29.9466H8.85354C7.71134 29.9466 6.61593 29.4928 5.80827 28.6852C5.00061 27.8775 4.54688 26.7821 4.54688 25.6399V9.63989Z" stroke="#EBEDF8" stroke-width="2" stroke-miterlimit="10"/>
<path d="M10.9072 13.4533V7.09333C10.9072 5.7425 11.4438 4.44699 12.399 3.4918C13.3542 2.53662 14.6497 2 16.0006 2C17.3514 2 18.6469 2.53662 19.6021 3.4918C20.5573 4.44699 21.0939 5.7425 21.0939 7.09333V13.4533" stroke="#EBEDF8" stroke-width="2" stroke-miterlimit="10"/>
</svg>
