<svg width="641" height="42" viewBox="0 0 641 42" fill="none" xmlns="http://www.w3.org/2000/svg">
<path d="M369.628 34V9.0418H375.489V19.1078H385.52V9.0418H391.381V34H385.52V23.8995H375.489V34H369.628ZM400.344 34H394.001L402.481 9.0418H410.272L418.717 34H412.409L410.72 28.6567H402.033L400.344 34ZM403.446 24.1753H409.306L406.48 15.2124H406.273L403.446 24.1753ZM442.538 9.0418V34H437.54L427.405 19.3491H427.232V34H421.372V9.0418H426.439L436.471 23.6927H436.678V9.0418H442.538ZM459.809 16.4534C459.654 14.6436 458.309 13.5577 455.913 13.5577C453.535 13.5577 452.311 14.5919 452.294 16.0053C452.259 17.5565 453.776 18.3149 456.017 18.7976L458.189 19.3146C462.998 20.3661 465.79 22.7619 465.807 26.7607C465.79 31.4835 462.119 34.3275 455.913 34.3447C449.691 34.3275 445.675 31.5352 445.572 25.7955H451.225C451.363 28.2086 453.173 29.4496 455.845 29.4496C458.327 29.4496 459.809 28.3637 459.843 26.7607C459.809 25.3129 458.533 24.5545 455.776 23.934L453.156 23.3135C448.864 22.3138 446.227 20.1765 446.227 16.4189C446.209 11.7824 450.294 8.69707 455.948 8.69707C461.705 8.69707 465.411 11.8341 465.462 16.4534H459.809ZM483.974 9.0418H489.869V25.1405C489.869 30.7251 485.629 34.3275 479.355 34.3447C473.029 34.3275 468.841 30.7251 468.841 25.1405V9.0418H474.701V24.6579C474.701 27.2951 476.58 29.2083 479.355 29.2083C482.113 29.2083 483.991 27.2951 483.974 24.6579V9.0418ZM514.827 9.0418V34H509.829L499.694 19.3491H499.521V34H493.661V9.0418H498.729L508.76 23.6927H508.967V9.0418H514.827ZM535.028 17.1773C534.459 15.0917 532.77 13.8507 530.305 13.868C526.634 13.8507 524.307 16.643 524.307 21.4864C524.307 26.3643 526.531 29.1738 530.305 29.1738C533.632 29.1738 535.494 27.433 535.58 24.7269H530.547V20.4178H541.233V23.6927C541.233 30.3459 536.666 34.3447 530.271 34.3447C523.135 34.3447 518.309 29.4496 518.309 21.5554C518.309 13.4026 523.532 8.69707 530.168 8.69707C535.925 8.69707 540.354 12.196 540.992 17.1773H535.028Z" fill="white"/>
<path fill-rule="evenodd" clip-rule="evenodd" d="M566.156 28.1475C565.275 29.1611 563.909 29.6899 562.19 29.6899L561.97 29.6458C558.4 29.6458 556.637 27.5306 556.637 23.1679V9.33057H556.373H550.732V23.3882C550.732 27.0018 551.746 29.8221 553.685 31.7611C555.624 33.7001 558.4 34.6695 561.926 34.6695H562.146C565.671 34.6695 568.448 33.7001 570.387 31.7611C572.37 29.8221 573.339 27.0018 573.339 23.3882V9.33057H567.787H567.522V23.2119C567.522 25.4594 567.082 27.134 566.156 28.1475ZM576.997 9.33057H582.197L593.787 24.534V9.33057H599.384V34.0085H594.536L582.55 18.3204V34.0085H576.997V9.33057ZM608.549 9.33057H603.129V34.0085H608.549V9.33057ZM632.61 9.33057H632.522L624.987 26.7373L617.583 9.33057H617.495H611.326L621.946 34.0085H627.587L638.295 9.33057H632.61ZM640.939 31.5856C640.939 33.1676 639.657 34.45 638.075 34.45C636.493 34.45 635.21 33.1676 635.21 31.5856C635.21 30.0036 636.493 28.7212 638.075 28.7212C639.657 28.7212 640.939 30.0036 640.939 31.5856Z" fill="white"/>
<g clip-path="url(#clip0_591_368)">
<path d="M34.0791 19.4138V8.61719H50.3721L34.0791 19.4138Z" fill="white"/>
<path d="M17.303 29.1528V8.61719H0L16.1612 19.2816V34.0002H34.0791V32.6341V32.1053V29.1528H17.303Z" fill="#E67800"/>
<path fill-rule="evenodd" clip-rule="evenodd" d="M184.229 33.9559C182.297 33.9559 180.54 33.6034 178.915 32.9424C177.29 32.2814 175.885 31.3559 174.699 30.1661C173.514 29.0203 172.591 27.6542 171.933 26.0678C171.274 24.4814 170.966 22.8068 170.966 21.0441V20.9559C170.966 19.1492 171.318 17.4746 171.977 15.9322C172.635 14.3458 173.558 12.9797 174.743 11.7898C175.929 10.6 177.334 9.67458 178.959 9.01356C180.584 8.35254 182.385 8 184.317 8C186.249 8 188.006 8.35254 189.631 9.01356C191.256 9.67458 192.661 10.6 193.847 11.7898C195.033 12.9356 195.955 14.3017 196.614 15.8881C197.272 17.4746 197.58 19.1492 197.58 20.9119V21C197.58 22.8068 197.229 24.4814 196.57 26.0237C195.911 27.6102 194.989 28.9763 193.803 30.1661C192.617 31.3559 191.212 32.2814 189.587 32.9424C187.918 33.6475 186.162 33.9559 184.229 33.9559ZM184.317 28.9763C185.415 28.9763 186.469 28.7559 187.391 28.3593C188.313 27.9627 189.148 27.3898 189.807 26.6407C190.465 25.8915 190.992 25.0542 191.388 24.1288C191.739 23.1593 191.959 22.1458 191.959 21.0441V20.9559C191.959 19.8542 191.783 18.8407 191.388 17.8712C190.992 16.9017 190.465 16.0644 189.807 15.3153C189.104 14.5661 188.313 13.9932 187.347 13.5966C186.425 13.1559 185.371 12.9797 184.273 12.9797C183.131 12.9797 182.121 13.2 181.155 13.5966C180.233 13.9932 179.442 14.5661 178.784 15.3153C178.125 16.0644 177.598 16.9017 177.203 17.8271C176.807 18.7966 176.632 19.8102 176.632 20.9119V21C176.632 22.1017 176.807 23.1153 177.203 24.0847C177.598 25.0542 178.125 25.8915 178.784 26.6407C179.486 27.3898 180.277 27.9627 181.199 28.3593C182.121 28.7559 183.175 28.9763 184.317 28.9763ZM57.8818 8.61712H63.2835V28.4036H75.9754V33.2951H57.8818V8.61712ZM84.4952 8.61712H79.0935V33.2951H84.4952V8.61712ZM93.8932 8.61712H88.4915V33.2951H93.8932V25.7595L96.7478 22.7629L104.389 33.2951H110.889L100.393 19.0612L110.406 8.61712H103.906L93.8932 19.1934V8.61712ZM112.909 8.61712H132.013V13.4646H118.223V18.5324H131.398V23.3798H118.223V28.4476H132.013V33.2951H112.909V8.61712ZM147.076 8.61712H141.674V33.2951H159.768V28.4036H147.076V8.61712ZM168.244 8.61712H162.842V33.2951H168.244V8.61712ZM205.66 8.61712H200.478V33.2951H206.012V17.607L217.913 33.2951H222.744V8.61712H217.167V23.8205L205.66 8.61712ZM262.005 8.61712H256.823V33.2951H262.356V17.607L274.302 33.2951H279.133V8.61712H273.555V23.8205L262.005 8.61712ZM288.267 8.61712H282.865V33.2951H288.267V8.61712ZM246.02 27.4341C245.141 28.4476 243.78 28.9764 242.067 28.9764L241.848 28.9324C238.29 28.9324 236.534 26.8171 236.534 22.4544V8.61712H236.27H230.649V22.6747C230.649 26.2883 231.659 29.1086 233.591 31.0476C235.524 32.9866 238.29 33.9561 241.804 33.9561H242.023C245.536 33.9561 248.303 32.9866 250.236 31.0476C252.212 29.1086 253.178 26.2883 253.178 22.6747V8.61712H247.644H247.381V22.4985C247.381 24.7459 246.942 26.4205 246.02 27.4341ZM312.245 8.61712H312.158L304.648 26.0239L297.27 8.61712H297.182H291.034L301.618 33.2951H307.239L317.911 8.61712H312.245ZM320.546 30.8712C320.546 32.4532 319.268 33.7356 317.691 33.7356C316.115 33.7356 314.837 32.4532 314.837 30.8712C314.837 29.2893 316.115 28.0068 317.691 28.0068C319.268 28.0068 320.546 29.2893 320.546 30.8712Z" fill="white"/>
</g>
<path d="M337.888 30.4908L343.97 24.3877L350.053 30.4908L353.444 27.1248L347.325 21.0217L353.444 14.9186L350.053 11.5156L343.97 17.6187L337.888 11.5156L334.497 14.9186L340.616 21.0217L334.497 27.1248L337.888 30.4908Z" fill="#E67800"/>
<defs>
<clipPath id="clip0_591_368">
<rect width="320.546" height="26" fill="white" transform="translate(0 8)"/>
</clipPath>
</defs>
</svg>
